<svg xmlns="http://www.w3.org/2000/svg" width="1200" height="675" viewBox="0 0 1200 675">
  <defs>
    <linearGradient id="bg" x1="0" y1="0" x2="1" y2="1">
      <stop offset="0%" stop-color="#0b0f14"/>
      <stop offset="100%" stop-color="#0f1620"/>
    </linearGradient>
  </defs>
  <rect width="1200" height="675" fill="url(#bg)"/>
  <rect x="0" y="0" width="1200" height="72" fill="#0e1a28"/>
  <text x="32" y="46" font-family="Segoe UI, Roboto, Arial" font-size="28" fill="#a7f3d0" font-weight="600">Toonami Aftermath: Downlink</text>
  <text x="32" y="70" font-family="Segoe UI, Roboto, Arial" font-size="13" fill="#9ca3af">Sanitized Xtreme Codes preview</text>

  <g transform="translate(32,96)">
    <rect width="1136" height="64" rx="8" fill="#111827" stroke="#1f2937"/>
    <text x="16" y="28" font-family="Segoe UI, Roboto, Arial" font-size="18" fill="#d1d5db">Xtreme Codes Settings</text>
    <text x="16" y="50" font-family="Consolas, Menlo, monospace" font-size="14" fill="#9ca3af">Server: HOST:7004 • Username: •••••••• • Password: ••••••••</text>
  </g>

  <g transform="translate(32,176)">
    <rect width="1136" height="200" rx="8" fill="#0d141c" stroke="#1f2937"/>
    <text x="16" y="28" font-family="Segoe UI, Roboto, Arial" font-size="18" fill="#d1d5db">Direct URLs & Copy</text>
    <rect x="16" y="48" width="528" height="36" rx="6" fill="#0b1220" stroke="#1f2937"/>
    <text x="28" y="70" font-family="Consolas, Menlo, monospace" font-size="14" fill="#a7f3d0">http://HOST:7004/get.php?username=••••&amp;password=••••</text>
    <rect x="16" y="96" width="528" height="36" rx="6" fill="#0b1220" stroke="#1f2937"/>
    <text x="28" y="118" font-family="Consolas, Menlo, monospace" font-size="14" fill="#a7f3d0">http://HOST:7004/xmltv.php?username=••••&amp;password=••••</text>
    <rect x="16" y="144" width="180" height="28" rx="6" fill="#0ea5e9"/>
    <text x="32" y="164" font-family="Segoe UI, Roboto, Arial" font-size="14" fill="#052736">Copy</text>
  </g>

  <g transform="translate(32,392)">
    <rect width="1136" height="240" rx="8" fill="#0d141c" stroke="#1f2937"/>
    <text x="16" y="28" font-family="Segoe UI, Roboto, Arial" font-size="18" fill="#d1d5db">Usage</text>
    <text x="16" y="56" font-family="Segoe UI, Roboto, Arial" font-size="14" fill="#9ca3af">Use these endpoints in your IPTV player’s Xtreme Codes settings.</text>
  </g>
</svg>
