<svg xmlns="http://www.w3.org/2000/svg" width="1200" height="675" viewBox="0 0 1200 675">
  <defs>
    <linearGradient id="bg" x1="0" y1="0" x2="1" y2="1">
      <stop offset="0%" stop-color="#0b0f14"/>
      <stop offset="100%" stop-color="#0f1620"/>
    </linearGradient>
  </defs>
  <rect width="1200" height="675" fill="url(#bg)"/>
  <rect x="0" y="0" width="1200" height="72" fill="#0e1a28"/>
  <text x="32" y="46" font-family="Segoe UI, Roboto, Arial" font-size="28" fill="#a7f3d0" font-weight="600">Toonami Aftermath: Downlink</text>
  <text x="32" y="70" font-family="Segoe UI, Roboto, Arial" font-size="13" fill="#9ca3af">Sanitized UI preview</text>

  <g transform="translate(32,96)">
    <rect width="1136" height="64" rx="8" fill="#111827" stroke="#1f2937"/>
    <text x="16" y="28" font-family="Segoe UI, Roboto, Arial" font-size="18" fill="#d1d5db">Status</text>
    <text x="16" y="50" font-family="Consolas, Menlo, monospace" font-size="14" fill="#9ca3af">last_update: 2025-08-09T03:00:00Z  •  cron: 0 3 * * *  •  channels: 5</text>
  </g>

  <g transform="translate(32,176)">
    <rect width="560" height="180" rx="8" fill="#0d141c" stroke="#1f2937"/>
    <text x="16" y="28" font-family="Segoe UI, Roboto, Arial" font-size="18" fill="#d1d5db">Direct URLs</text>
    <rect x="16" y="44" width="528" height="36" rx="6" fill="#0b1220" stroke="#1f2937"/>
    <text x="28" y="67" font-family="Consolas, Menlo, monospace" font-size="14" fill="#a7f3d0">http://HOST:7004/m3u</text>
    <rect x="16" y="92" width="528" height="36" rx="6" fill="#0b1220" stroke="#1f2937"/>
    <text x="28" y="115" font-family="Consolas, Menlo, monospace" font-size="14" fill="#a7f3d0">http://HOST:7004/xml</text>
    <rect x="16" y="140" width="180" height="28" rx="6" fill="#0ea5e9"/>
    <text x="32" y="160" font-family="Segoe UI, Roboto, Arial" font-size="14" fill="#052736">Copy</text>
  </g>

  <g transform="translate(608,176)">
    <rect width="560" height="180" rx="8" fill="#0d141c" stroke="#1f2937"/>
    <text x="16" y="28" font-family="Segoe UI, Roboto, Arial" font-size="18" fill="#d1d5db">Xtreme Codes API</text>
    <text x="16" y="56" font-family="Consolas, Menlo, monospace" font-size="14" fill="#9ca3af">server: HOST:7004</text>
    <text x="16" y="78" font-family="Consolas, Menlo, monospace" font-size="14" fill="#9ca3af">username: ••••••••</text>
    <text x="16" y="100" font-family="Consolas, Menlo, monospace" font-size="14" fill="#9ca3af">password: ••••••••</text>
    <rect x="16" y="120" width="210" height="28" rx="6" fill="#34d399"/>
    <text x="32" y="140" font-family="Segoe UI, Roboto, Arial" font-size="14" fill="#052e2e">Copy credentials</text>
  </g>

  <g transform="translate(32,372)">
    <rect width="1136" height="240" rx="8" fill="#0d141c" stroke="#1f2937"/>
    <text x="16" y="28" font-family="Segoe UI, Roboto, Arial" font-size="18" fill="#d1d5db">Channels</text>
    <g transform="translate(16,44)">
      <rect width="1104" height="32" rx="6" fill="#0b1220"/>
      <text x="12" y="22" font-family="Consolas, Menlo, monospace" font-size="14" fill="#93c5fd">#EXTINF:-1 tvg-id="ta1" tvg-chno="1", Toonami East</text>
    </g>
    <g transform="translate(16,84)">
      <rect width="1104" height="32" rx="6" fill="#0b1220"/>
      <text x="12" y="22" font-family="Consolas, Menlo, monospace" font-size="14" fill="#93c5fd">#EXTINF:-1 tvg-id="ta2" tvg-chno="2", Toonami West</text>
    </g>
    <g transform="translate(16,124)">
      <rect width="1104" height="32" rx="6" fill="#0b1220"/>
      <text x="12" y="22" font-family="Consolas, Menlo, monospace" font-size="14" fill="#93c5fd">http://stream.example/ta1.m3u8</text>
    </g>
  </g>
</svg>
