<?xml version="1.0" encoding="UTF-8"?>
<svg width="512" height="512" viewBox="0 0 512 512" fill="none" xmlns="http://www.w3.org/2000/svg">
  <defs>
    <linearGradient id="g" x1="32" y1="32" x2="480" y2="480" gradientUnits="userSpaceOnUse">
      <stop stop-color="#00D4FF"/>
      <stop offset="1" stop-color="#6BFFB7"/>
    </linearGradient>
    <filter id="glow" x="-20%" y="-20%" width="140%" height="140%">
      <feGaussianBlur stdDeviation="12" result="blur"/>
      <feMerge>
        <feMergeNode in="blur"/>
        <feMergeNode in="SourceGraphic"/>
      </feMerge>
    </filter>
  </defs>
  <rect x="32" y="32" width="448" height="448" rx="64" fill="url(#g)"/>
  <g filter="url(#glow)">
    <!-- Stylized Downlink mark: D + arrow -->
    <path d="M180 140h72c62 0 112 50 112 112s-50 112-112 112h-72V140z" fill="#001018" opacity="0.18"/>
    <path d="M200 170h52c46 0 84 38 84 84s-38 84-84 84h-52V170z" stroke="#001018" stroke-opacity="0.35" stroke-width="14"/>
    <path d="M310 190l98 98" stroke="#001018" stroke-width="20" stroke-linecap="round"/>
    <path d="M408 288l-40 0 0-40" stroke="#001018" stroke-width="20" stroke-linecap="round" stroke-linejoin="round"/>
    <!-- Down arrow -->
    <path d="M256 232v96" stroke="#001018" stroke-width="18" stroke-linecap="round"/>
    <path d="M220 300l36 36 36-36" stroke="#001018" stroke-width="18" stroke-linecap="round" stroke-linejoin="round"/>
  </g>
</svg>
